<?xml version="1.0" standalone="no"?>
<!DOCTYPE svg PUBLIC "-//W3C//DTD SVG 20010904//EN"
 "http://www.w3.org/TR/2001/REC-SVG-20010904/DTD/svg10.dtd">
<svg version="1.0" xmlns="http://www.w3.org/2000/svg"
 width="500.000000pt" height="500.000000pt" viewBox="0 0 500.000000 500.000000"
 preserveAspectRatio="xMidYMid meet">

<g transform="translate(0.000000,500.000000) scale(0.100000,-0.100000)"
fill="#000000" stroke="none">
<path d="M2409 4767 c-24 -12 -153 -102 -286 -200 l-242 -178 -330 1 c-309 1
-332 0 -368 -18 -74 -38 -82 -54 -193 -390 l-105 -316 -240 -174 c-132 -95
-253 -185 -269 -200 -37 -35 -66 -97 -66 -143 0 -20 45 -174 100 -343 l100
-306 -100 -306 c-55 -168 -100 -322 -100 -342 0 -47 29 -109 66 -144 16 -15
137 -105 269 -200 l240 -174 105 -316 c112 -336 119 -350 195 -391 38 -21 57
-22 380 -27 l340 -5 230 -170 c261 -193 299 -215 365 -215 66 0 104 22 365
215 l230 170 340 5 c323 5 342 6 380 27 76 41 83 55 195 391 l105 317 240 173
c132 95 253 185 269 200 37 35 66 97 66 144 0 20 -45 174 -100 342 l-101 306
101 306 c55 168 100 318 100 332 0 49 -21 103 -53 139 -18 19 -142 114 -277
211 l-245 177 -105 317 c-111 336 -119 352 -193 390 -36 18 -59 19 -368 18
l-330 -1 -242 178 c-275 202 -311 223 -377 223 -29 0 -64 -9 -91 -23z m309
-601 c116 -85 226 -163 244 -173 29 -16 67 -18 324 -21 l290 -4 87 -266 c53
-164 96 -277 110 -293 12 -14 120 -97 240 -183 119 -87 217 -162 217 -168 0
-5 -36 -122 -81 -259 -44 -136 -83 -263 -85 -281 -4 -24 17 -103 80 -300 47
-147 86 -271 86 -277 0 -5 -94 -77 -208 -160 -114 -83 -223 -166 -241 -185
-28 -29 -45 -72 -120 -302 l-87 -269 -292 -2 c-246 -2 -296 -4 -322 -18 -17
-9 -126 -86 -242 -171 -116 -85 -214 -154 -218 -154 -4 0 -102 69 -218 154
-116 85 -225 162 -242 171 -26 14 -76 16 -322 18 l-292 2 -87 269 c-75 230
-92 273 -120 302 -18 19 -127 102 -241 185 -114 83 -208 155 -208 160 0 6 38
129 85 274 47 145 85 274 85 285 0 11 -38 140 -85 285 -47 145 -85 268 -85
274 0 5 95 78 210 162 116 84 224 166 241 183 25 25 46 79 117 298 l86 266
290 4 c253 3 295 6 323 21 17 9 127 87 244 172 116 85 215 155 219 155 4 0
102 -69 218 -154z"/>
<path d="M2914 3339 c-18 -20 -19 -50 -22 -785 l-2 -764 -75 0 -75 0 0 549 c0
565 -2 601 -40 621 -20 11 -368 14 -395 4 -44 -17 -45 -32 -45 -619 l0 -555
-75 0 -74 0 -3 370 c-3 369 -3 369 -26 392 -22 22 -28 23 -211 23 -172 0 -191
-2 -210 -19 -21 -19 -21 -25 -21 -448 0 -415 1 -429 20 -448 20 -20 33 -20
840 -20 807 0 820 0 840 20 20 20 20 33 20 840 0 807 0 820 -20 840 -19 19
-33 20 -213 20 -184 0 -195 -1 -213 -21z"/>
</g>
</svg>
